HIERARCHY
ROOT Hips
{
    OFFSET 0.000000 0.000000 0.000000
    CHANNELS 6 Xposition Yposition Zposition Zrotation Xrotation Yrotation
    JOINT Spine
    {
        OFFSET -0.000000 14.517291 0.000000
        CHANNELS 3 Zrotation Xrotation Yrotation
        JOINT Spine1
        {
            OFFSET -0.000000 37.558300 0.000000
            CHANNELS 3 Zrotation Xrotation Yrotation
            JOINT Neck
            {
                OFFSET -0.000000 37.404057 3.400369
                CHANNELS 3 Zrotation Xrotation Yrotation
                JOINT Head
                {
                    OFFSET -0.000000 24.785618 -3.540803
                    CHANNELS 3 Zrotation Xrotation Yrotation
                    End Site
                    {
                        OFFSET -0.000000 35.408028 0.000000
                    }
                }
            }
            JOINT LeftShoulder
            {
                OFFSET 6.992933 33.973492 -0.192664
                CHANNELS 3 Zrotation Xrotation Yrotation
                JOINT LeftArm
                {
                    OFFSET 21.527611 0.000000 0.000000
                    CHANNELS 3 Zrotation Xrotation Yrotation
                    JOINT LeftForeArm
                    {
                        OFFSET 56.353916 0.000000 0.000000
                        CHANNELS 3 Zrotation Xrotation Yrotation
                        JOINT LeftHand
                        {
                            OFFSET 47.774071 0.000000 0.000000
                            CHANNELS 3 Zrotation Xrotation Yrotation
                            End Site
                            {
                                OFFSET 26.556021 0.000000 0.000000
                            }
                        }
                    }
                }
            }
            JOINT RightShoulder
            {
                OFFSET -7.065357 33.973492 -0.192664
                CHANNELS 3 Zrotation Xrotation Yrotation
                JOINT RightArm
                {
                    OFFSET -21.527611 0.000000 0.000000
                    CHANNELS 3 Zrotation Xrotation Yrotation
                    JOINT RightForeArm
                    {
                        OFFSET -56.353916 0.000000 0.000000
                        CHANNELS 3 Zrotation Xrotation Yrotation
                        JOINT RightHand
                        {
                            OFFSET -47.774071 0.000000 0.000000
                            CHANNELS 3 Zrotation Xrotation Yrotation
                            End Site
                            {
                                OFFSET -26.556021 0.000000 0.000000
                            }
                        }
                    }
                }
            }
        }
    }
    JOINT LeftUpLeg
    {
        OFFSET 17.704014 0.000000 0.000000
        CHANNELS 3 Zrotation Xrotation Yrotation
        JOINT LeftLeg
        {
            OFFSET -0.000000 -81.181816 0.000000
            CHANNELS 3 Zrotation Xrotation Yrotation
            JOINT LeftFoot
            {
                OFFSET -0.000000 -62.821102 0.000000
                CHANNELS 3 Zrotation Xrotation Yrotation
                JOINT LeftToeBase
                {
                    OFFSET -0.000000 -11.507608 26.556021
                    CHANNELS 3 Zrotation Xrotation Yrotation
                    End Site
                    {
                        OFFSET -0.000000 0.000000 7.081605
                    }
                }
            }
        }
    }
    JOINT RightUpLeg
    {
        OFFSET -17.704014 0.000000 0.000000
        CHANNELS 3 Zrotation Xrotation Yrotation
        JOINT RightLeg
        {
            OFFSET -0.000000 -81.181816 0.000000
            CHANNELS 3 Zrotation Xrotation Yrotation
            JOINT RightFoot
            {
                OFFSET -0.000000 -62.821102 0.000000
                CHANNELS 3 Zrotation Xrotation Yrotation
                JOINT RightToeBase
                {
                    OFFSET -0.000000 -11.507608 26.556021
                    CHANNELS 3 Zrotation Xrotation Yrotation
                    End Site
                    {
                        OFFSET -0.000000 0.000000 7.081605
                    }
                }
            }
        }
    }
}
MOTION
Frames:    11
Frame Time:    0.008333
25.627417    133.176651    -31.568861    3.525637    1.355958    -55.847107    -0.450583    1.676744    0.393274    2.281792    -1.102268    0.150041    17.716877    -0.257599    16.694632    -12.549945    5.121996    13.490514    13.245507    -2.623690    -18.276274    -5.060346    -22.236496    -35.122356    10.985860    -37.719349    -15.700090    -28.413280    -25.174166    -48.862221    -8.363005    1.218971    0.011428    35.207146    4.589489    81.214279    8.646340    -2.485413    104.296303    3.992025    -12.836323    20.546833    39.891994    -32.934288    24.573927    -52.384281    57.554337    22.897013    4.603508    -22.295925    36.173882    0.000000    0.000000    0.000000    -34.571350    -21.701466    -15.817593    39.936554    70.795296    -28.825115    14.460851    -29.643887    4.240408    0.000000    0.000000    0.000000    
25.586504    133.801300    -31.640610    3.506005    1.375023    -55.804173    -0.416563    1.610865    0.385289    2.283789    -1.046077    0.146601    17.721405    -0.262221    16.683935    -12.563424    5.140872    13.478660    13.227982    -2.596586    -18.268175    -5.092605    -22.212835    -35.193707    11.008802    -37.726551    -15.675928    -28.412676    -25.186203    -48.846954    -8.372011    1.235294    -0.017853    35.263912    4.555390    81.238899    8.680370    -2.435248    104.283768    3.994226    -12.829360    20.506189    39.495331    -32.706127    24.277441    -51.080143    57.044739    21.863758    4.341096    -21.948292    36.117676    0.000000    0.000000    0.000000    -34.167683    -21.414644    -15.750275    38.272949    70.177521    -27.376598    14.306828    -29.454367    3.964056    0.000000    0.000000    0.000000    
25.547552    134.421753    -31.709015    3.490016    1.382746    -55.765717    -0.398395    1.546956    0.380332    2.285371    -0.989840    0.144240    17.719265    -0.275027    16.663755    -12.544111    5.175645    13.461464    13.233756    -2.593788    -18.274956    -5.167242    -22.226835    -35.255131    10.985057    -37.705444    -15.676791    -28.385403    -25.182137    -48.828812    -8.372905    1.214418    -0.028143    35.257801    4.567678    81.217934    8.661289    -2.479836    104.286987    4.021900    -12.842960    20.544571    39.098820    -32.461433    23.998306    -49.837070    56.507648    20.848900    4.114397    -21.575348    36.095589    0.000000    0.000000    0.000000    -33.779331    -21.119263    -15.706995    36.629990    69.554886    -25.911795    14.173077    -29.287542    3.672068    0.000000    0.000000    0.000000    
25.507795    135.040909    -31.786585    3.475647    1.395256    -55.738926    -0.392860    1.485162    0.382343    2.299137    -0.942756    0.144187    17.689631    -0.301588    16.643234    -12.459394    5.213620    13.452532    13.245603    -2.593306    -18.305212    -5.227067    -22.219564    -35.279335    10.975945    -37.707119    -15.687055    -28.396008    -25.184666    -48.810631    -8.369658    1.197187    -0.034410    35.277779    4.562096    81.191414    8.650073    -2.487630    104.294724    4.042716    -12.834000    20.543247    38.714188    -32.205116    23.738998    -48.592964    55.952713    19.867670    3.856178    -21.213026    36.046028    0.000000    0.000000    0.000000    -33.371048    -20.837708    -15.654243    35.018970    68.920441    -24.495913    14.044604    -29.108572    3.381849    0.000000    0.000000    0.000000    
25.460932    135.657593    -31.865566    3.447673    1.400901    -55.718025    -0.395066    1.442178    0.391192    2.318367    -0.895189    0.146134    17.744736    -0.299773    16.632399    -12.506597    5.239734    13.431259    13.261197    -2.566117    -18.316496    -5.284618    -22.255657    -35.340870    10.962179    -37.698948    -15.677599    -28.421656    -25.158360    -48.839748    -8.358717    1.187078    -0.072953    35.269260    4.566762    81.192871    8.648608    -2.533564    104.298790    4.105873    -12.865518    20.577711    38.338730    -31.929565    23.501743    -47.401161    55.393913    18.924017    3.619144    -20.834852    36.027710    0.000000    0.000000    0.000000    -32.962547    -20.533812    -15.578815    33.553806    68.246323    -23.233639    13.884428    -28.935915    3.094435    0.000000    0.000000    0.000000    
25.416025    136.276276    -31.943142    3.434751    1.420140    -55.698891    -0.393392    1.379131    0.397983    2.352512    -0.860799    0.148157    17.728750    -0.309572    16.615702    -12.467782    5.282818    13.423059    13.239799    -2.561235    -18.365763    -5.290277    -22.207031    -35.330410    10.974326    -37.717762    -15.680109    -28.463293    -25.151964    -48.867329    -8.358160    1.222719    -0.118851    35.229443    4.562386    81.235397    8.627535    -2.613516    104.301010    4.101635    -12.918317    20.565411    37.965057    -31.659700    23.294054    -46.176842    54.832191    17.969149    3.358685    -20.465563    35.963306    0.000000    0.000000    0.000000    -32.544670    -20.227365    -15.557302    32.002625    67.555786    -21.923735    13.777399    -28.774446    2.885235    0.000000    0.000000    0.000000    
25.380215    136.887268    -32.022209    3.444190    1.432524    -55.679150    -0.405446    1.296647    0.392926    2.379947    -0.811130    0.145695    17.674809    -0.306682    16.600983    -12.379462    5.290298    13.425631    13.214331    -2.541973    -18.386517    -5.271844    -22.147474    -35.332344    11.014650    -37.744286    -15.671379    -28.481331    -25.168621    -48.872231    -8.368592    1.214555    -0.119773    35.253559    4.550583    81.234482    8.626094    -2.621968    104.310486    4.039793    -12.939434    20.517097    37.587101    -31.398569    23.071955    -45.050140    54.220886    17.136978    3.102626    -20.083021    35.884438    0.000000    0.000000    0.000000    -32.150230    -19.943241    -15.500567    30.606133    66.844902    -20.776617    13.637144    -28.608089    2.666631    0.000000    0.000000    0.000000    
25.329489    137.502167    -32.097042    3.425289    1.439577    -55.648869    -0.407094    1.227887    0.378941    2.403056    -0.746959    0.139864    17.658258    -0.309732    16.589109    -12.336418    5.313607    13.421843    13.196630    -2.507416    -18.392218    -5.252630    -22.093910    -35.348133    11.049099    -37.794277    -15.673328    -28.504423    -25.204559    -48.895634    -8.381957    1.205176    -0.118543    35.321754    4.535021    81.235626    8.647030    -2.591997    104.300079    4.018113    -12.938962    20.497829    37.198513    -31.113949    22.882389    -43.727848    53.582554    16.096695    2.792755    -19.626057    35.638081    0.000000    0.000000    0.000000    -31.748751    -19.604370    -15.436664    29.295473    66.085953    -19.679247    13.499082    -28.435244    2.449638    0.000000    0.000000    0.000000    
25.279865    138.122864    -32.171452    3.399189    1.446454    -55.626785    -0.390947    1.172188    0.372670    2.393393    -0.678296    0.136647    17.604382    -0.347022    16.573332    -12.191540    5.348227    13.425091    13.207161    -2.500478    -18.377834    -5.266589    -22.060238    -35.388020    11.052837    -37.811298    -15.689814    -28.508760    -25.213463    -48.919521    -8.372364    1.191091    -0.148552    35.333233    4.559820    81.261513    8.626432    -2.641703    104.285973    4.032220    -12.954875    20.518845    36.810524    -30.808319    22.648361    -42.577148    52.951439    15.173436    2.523166    -19.252396    35.622757    0.000000    0.000000    0.000000    -31.317797    -19.257893    -15.357260    27.977859    65.295143    -18.618170    13.353757    -28.267042    2.248113    0.000000    0.000000    0.000000    
25.233263    138.740021    -32.246876    3.387218    1.454754    -55.612263    -0.392784    1.106961    0.365054    2.410707    -0.616065    0.133002    17.601559    -0.356368    16.570091    -12.166085    5.379852    13.426415    13.194933    -2.505317    -18.362381    -5.285226    -22.025091    -35.422421    11.042340    -37.830505    -15.715886    -28.509581    -25.228104    -48.940895    -8.389004    1.190122    -0.181064    35.394211    4.569663    81.299919    8.637918    -2.619508    104.268845    4.023845    -12.945434    20.535622    36.421127    -30.510639    22.447163    -41.432190    52.325741    14.309660    2.238669    -18.868113    35.546070    0.000000    0.000000    0.000000    -30.905827    -18.919685    -15.257872    26.843811    64.467537    -17.762159    13.239510    -28.090826    2.041466    0.000000    0.000000    0.000000    
25.188198    139.360840    -32.324966    3.390096    1.475193    -55.595680    -0.395057    1.030367    0.354946    2.431333    -0.579427    0.128997    17.610703    -0.309926    16.557878    -12.179633    5.374743    13.417741    13.186590    -2.488681    -18.360186    -5.309686    -22.001438    -35.453487    11.046678    -37.838524    -15.731221    -28.519405    -25.232658    -48.934994    -8.400499    1.220519    -0.198296    35.384499    4.585979    81.342865    8.608643    -2.700475    104.252907    4.074967    -12.974136    20.554995    36.016617    -30.238731    22.229631    -40.271931    51.683315    13.495127    1.940052    -18.482241    35.444340    0.000000    0.000000    0.000000    -30.493742    -18.585264    -15.151384    25.793457    63.492920    -16.942493    13.044670    -27.871899    1.760613    0.000000    0.000000    0.000000    
